<?xml version="1.0" encoding="UTF-8"?>
<svg width="80px" height="80px" viewBox="0 0 80 80" version="1.1" xmlns="http://www.w3.org/2000/svg" xmlns:xlink="http://www.w3.org/1999/xlink">
    <!-- Generator: Sketch 52.2 (67145) - http://www.bohemiancoding.com/sketch -->
    <title>icon-heartbeat-bb</title>
    <desc>Created with Sketch.</desc>
    <g id="icon-heartbeat-bb" stroke="none" stroke-width="1" fill="none" fill-rule="evenodd">
        <path d="M20.676875,38.1826562 C18.99875,36.2107812 17.526875,34.1217187 17.2096875,31.6748437 C16.7565625,28.1889062 18.1221875,24.5576562 20.77375,22.2014062 C22.9378125,20.2779687 25.7284375,19.2904687 28.614375,19.4810937 C30.9096875,19.6154687 33.04875,20.4639062 34.78,21.8670312 L36.8190625,19.5076562 C34.5534375,17.6467187 31.7784375,16.5357812 28.7971875,16.3607812 C25.0690625,16.1639062 21.4846875,17.3873437 18.6971875,19.8670312 C15.283125,22.9014062 13.5253125,27.5795312 14.11125,32.0779687 C14.558125,35.5154687 16.5596875,38.2076562 18.61125,40.5732812 L20.676875,38.1826562 Z" id="Fill-1" fill="#00BFB3"></path>
        <path d="M25.423125,43.1067187 L39.023125,59.0082812 L56.0059375,39.6895313 C58.135625,37.2676563 60.5496875,34.5223438 60.85125,31.1989063 C61.15125,27.8957813 59.7684375,24.4473438 57.241875,22.2004688 C55.0778125,20.2770313 52.285625,19.3067187 49.40125,19.4817188 C46.5090625,19.6504688 43.8559375,20.9379688 41.9309375,23.1020313 L25.423125,43.1067187 Z M38.991875,63.7770313 L21.341875,43.1426563 L39.5575,21.0692187 C42.0746875,18.2379688 45.491875,16.5801563 49.216875,16.3614063 C52.945,16.1426563 56.529375,17.3864063 59.3184375,19.8660938 C62.5715625,22.7582813 64.35125,27.2082813 63.96375,31.4817187 C63.57,35.8207813 60.67625,39.1098438 58.3528125,41.7535938 L38.991875,63.7770313 Z" id="Fill-3" fill="#535966"></path>
    </g>
</svg>