<?xml version="1.0" encoding="UTF-8"?>
<svg viewBox="0 0 24 28" version="1.1" xmlns="http://www.w3.org/2000/svg" xmlns:xlink="http://www.w3.org/1999/xlink">
    <g id="Page-1" stroke="none" stroke-width="1" fill="none" fill-rule="evenodd">
        <path d="M23.17,4.05 C23.05,3.97 21.72,3.27 19.92,2.45 L18.12,4.25 C19.37,4.8 20.55,5.35 21.37,5.78 C21.17,8.6 20.12,14.94 18.98,18.38 C18.2,20.81 14.13,23.62 12.05,24.84 C11.1158881,24.2928145 10.2143681,23.6918012 9.35,23.04 L17.96,14.39 C19.3298492,13.0165054 19.3298492,10.7934946 17.96,9.42 C16.5865054,8.05015084 14.3634946,8.05015084 12.99,9.42 L9.47,12.94 C9,13.41 8.26,13.41 7.79,12.94 C7.56,12.71 7.44,12.43 7.44,12.12 C7.44,11.81 7.56,11.49 7.79,11.3 L15.74,3.32 L17.58,1.48 C15.66,0.78 13.63,0.19 12.06,0.19 C8.07,0.19 1.22,3.91 0.94,4.06 L0.31,4.36 L0.31,5.06 C0.31,7.72 1.6,15.31 2.85,19.07 C3.12,19.89 3.63,20.71 4.22,21.46 L5.9,19.78 C5.55,19.27 5.23,18.8 5.08,18.29 C3.94,14.85 2.85,8.5 2.69,5.69 C4.88,4.63 9.5,2.52 12.04,2.52 C12.35,2.52 12.71,2.56 13.1,2.64 L6.13,9.61 C5.46,10.28 5.11,11.18 5.11,12.12 C5.11,13.06 5.46,13.96 6.13,14.63 C7.50349463,15.9998492 9.72650537,15.9998492 11.1,14.63 L14.62,11.11 C15.09,10.64 15.83,10.64 16.3,11.11 C16.53,11.34 16.65,11.62 16.65,11.93 C16.65,12.24 16.53,12.56 16.3,12.75 L5.83,23.23 C8.18,25.38 11,26.99 11.47,27.22 L12.02,27.53 L12.57,27.22 C19.62,23.38 21.06,19.55 21.18,19.12 C22.43,15.32 23.72,7.77 23.72,5.11 L23.72,4.4 L23.17,4.05 Z" id="Path" fill="#F05322"></path>
    </g>
</svg>