<svg xmlns="http://www.w3.org/2000/svg" viewBox="0 0 184 80"><defs><style>.cls-1{fill:#00bfb3;}.cls-2{fill:#343741;}.cls-3{fill:#07c;}</style></defs><title>Beats Color Lockup</title><g id="Layer_1" data-name="Layer 1"><path class="cls-1" d="M53.41,39.25A26,26,0,0,1,30,54H8V72H38A20,20,0,0,0,53.41,39.25Z"/><path class="cls-2" d="M48.68,35.11A19.9,19.9,0,0,0,38,32H8V48H30A20,20,0,0,0,48.68,35.11Z"/><path class="cls-3" d="M30,8H8V32H38a19.9,19.9,0,0,1,10.68,3.11A20,20,0,0,0,50,28h0A20,20,0,0,0,30,8Z"/></g><g id="Layer_2" data-name="Layer 2"><path d="M87.34,28.07a7.21,7.21,0,0,1,6,2.81c1.44,1.88,2.17,4.51,2.17,7.9s-.74,6-2.2,7.94a8,8,0,0,1-12.2,0h-.3l-.81,2.45h-3.3V20h4.41V27c0,.51,0,1.27-.08,2.28S81,30.89,81,31.16h.19A7,7,0,0,1,87.34,28.07Zm-1.14,3.6a4.45,4.45,0,0,0-3.83,1.57q-1.19,1.56-1.21,5.24v.3q0,3.78,1.2,5.48A4.45,4.45,0,0,0,86.27,46a4,4,0,0,0,3.56-1.86A9.89,9.89,0,0,0,91,38.74C91,34,89.42,31.67,86.2,31.67Z"/><path d="M109.73,49.56a10,10,0,0,1-7.56-2.82A10.73,10.73,0,0,1,99.44,39c0-3.38.84-6.05,2.53-8a8.73,8.73,0,0,1,7-2.91,8.56,8.56,0,0,1,6.49,2.49,9.54,9.54,0,0,1,2.38,6.87v2.38H104a6.83,6.83,0,0,0,1.64,4.64,5.66,5.66,0,0,0,4.33,1.62,15.48,15.48,0,0,0,3.42-.35,17.49,17.49,0,0,0,3.4-1.15v3.58a13.45,13.45,0,0,1-3.26,1.09A20.24,20.24,0,0,1,109.73,49.56Zm-.81-18.15a4.4,4.4,0,0,0-3.36,1.33,6.35,6.35,0,0,0-1.51,3.88h9.41a5.72,5.72,0,0,0-1.24-3.89A4.24,4.24,0,0,0,108.92,31.41Z"/><path d="M135.77,49.18l-.88-2.88h-.15a8.37,8.37,0,0,1-3,2.57,9.46,9.46,0,0,1-3.9.69,6.62,6.62,0,0,1-4.77-1.65,6.19,6.19,0,0,1-1.71-4.67,5.48,5.48,0,0,1,2.38-4.84c1.59-1.09,4-1.68,7.25-1.78l3.59-.11V35.4a4.2,4.2,0,0,0-.93-3,3.78,3.78,0,0,0-2.88-1,10.08,10.08,0,0,0-3.06.46A25.65,25.65,0,0,0,124.88,33l-1.42-3.15a15.24,15.24,0,0,1,3.69-1.34,16.8,16.8,0,0,1,3.79-.46c2.63,0,4.63.58,6,1.73s2,2.95,2,5.41v14Zm-6.56-3a5.45,5.45,0,0,0,3.86-1.34,4.87,4.87,0,0,0,1.45-3.76v-1.8l-2.66.12a9,9,0,0,0-4.53,1,3.15,3.15,0,0,0-1.42,2.84,2.76,2.76,0,0,0,.83,2.14A3.51,3.51,0,0,0,129.21,46.18Z"/><path d="M152.8,46a10.61,10.61,0,0,0,3.22-.51v3.32a8.65,8.65,0,0,1-1.88.53,12.5,12.5,0,0,1-2.39.22q-6.27,0-6.26-6.6V31.78h-2.83v-2l3-1.61,1.5-4.39h2.72v4.62h5.91v3.33h-5.91v11.1a3.13,3.13,0,0,0,.8,2.36A2.93,2.93,0,0,0,152.8,46Z"/><path d="M174.1,43.28a5.44,5.44,0,0,1-2.21,4.66,10.62,10.62,0,0,1-6.34,1.62,15,15,0,0,1-6.66-1.26V44.5a16.43,16.43,0,0,0,6.81,1.68q4.06,0,4.07-2.45a2,2,0,0,0-.45-1.32,5.33,5.33,0,0,0-1.48-1.08A26,26,0,0,0,165,40.05a13.33,13.33,0,0,1-4.85-2.77,5.17,5.17,0,0,1-1.26-3.6A4.73,4.73,0,0,1,161,29.54a10.2,10.2,0,0,1,5.84-1.47,16.48,16.48,0,0,1,6.92,1.48l-1.42,3.32a15.52,15.52,0,0,0-5.65-1.39c-2.32,0-3.48.67-3.48,2a2,2,0,0,0,.91,1.65,19.73,19.73,0,0,0,4,1.86,17.91,17.91,0,0,1,3.73,1.82,5.43,5.43,0,0,1,1.73,1.9A5.58,5.58,0,0,1,174.1,43.28Z"/></g></svg>